<svg xmlns="http://www.w3.org/2000/svg" xmlns:xlink="http://www.w3.org/1999/xlink" width="360px" height="50px" viewBox="0 0 360 50" version="1.1">
    <!-- Generator: Sketch 43.2 (39069) - http://www.bohemiancoding.com/sketch -->
    <title>SYNOPSYS ELEARNING - HORZ D</title>
    <desc>Created with Sketch.</desc>
    <defs/>
    <g id="Symbols" stroke="none" stroke-width="1" fill="none" fill-rule="evenodd">
        <g id="SYNOPSYS-ELEARNING---HORZ-D">
            <g id="synopsys_color_logo" transform="translate(8.000000, 5.000000)" fill="#4E2A6C">
                <path d="M13.2122985,5.5251 C13.2122985,4.2336 12.5779104,3.2648 9.77328358,3.2648 C6.96865672,3.2648 6.33495522,4.2336 6.33495522,5.5251 L6.33495522,9.0286 C6.33495522,10.0919 6.69746269,11.1531 7.69161194,12.0288 L17.1916418,20.3322 C18.5496716,21.4844 19.3632537,22.9152 19.3632537,24.3908 L19.3625672,29.6492 C19.3625672,32.788 15.7436716,34.5373 9.77053731,34.5373 C3.16644776,34.5373 -0.000686566537,33.0183 6.27395555e-10,29.6492 L6.27395555e-10,25.0838 L5.97244776,25.0838 L5.97107463,29.4651 C5.97107463,31.0345 7.14785075,31.9557 9.77053731,31.9557 C12.2147164,31.9557 13.390806,31.0345 13.390806,29.4651 L13.3921791,24.8066 C13.3921791,23.6523 12.9383582,22.7759 11.6730149,21.6237 L2.89662687,13.8278 C1.26740299,12.3984 0.36319403,11.2896 0.36319403,9.5837 L0.36319403,5.5713 C0.36319403,2.2967 3.71158209,0.6811 9.77328358,0.6811 C16.4700597,0.6811 19.1833731,2.2967 19.1833731,5.341 L19.1826866,9.5844 L13.2122985,9.5837 L13.2122985,5.5251" id="Fill-1"/>
                <polyline id="Fill-9" points="37.8271073 0.870295082 43.7708412 0.870295082 30.7621845 41.9965574 24.819133 41.9965574 37.8271073 0.870295082"/>
                <polyline id="Fill-10" points="28.4495193 26.4159344 20.4094421 0.943967213 26.3518112 0.943967213 31.4200215 17.0031148 28.4495193 26.4159344"/>
                <path d="M66,5.87636341 C66,2.2427968 63.7867877,1 56.2668351,1 L45.0033574,1 L45,33 L50.838556,33 L50.8425849,3.48290356 L55.6463836,3.48290356 C58.3000895,3.48290356 60.1587581,3.83798836 60.1587581,5.47756552 L60.1587581,32.9905849 L65.9724691,32.9905849 L66,5.87636341 Z" id="Fill-14"/>
                <path d="M76.7746866,28.7448 C76.7746866,30.5907 77.4969552,31.8829 81.2991642,31.8829 C85.0993134,31.8829 85.8236418,30.5907 85.8236418,28.7448 L85.8243284,6.328 C85.8243284,4.4828 85.0993134,3.1913 81.3005373,3.1913 C77.4990149,3.1913 76.7746866,4.4828 76.7746866,6.328 L76.7746866,28.7448 Z M70.8036119,6.2342 C70.8036119,2.9596 73.2464179,0.6076 81.3005373,0.609 C89.352597,0.609 91.7967761,2.9596 91.7960896,6.2342 L91.7940299,28.8372 C91.7940299,32.1132 89.352597,34.4652 81.2991642,34.4652 C73.2457313,34.4652 70.8022388,32.1132 70.8022388,28.8372 L70.8036119,6.2342 L70.8036119,6.2342 Z" id="Fill-3"/>
                <path d="M103.658915,16.1128673 C106.311902,16.1128673 108.164367,15.7577452 108.164367,14.1179957 L108.164367,5.47669091 C108.164367,3.83694144 106.311902,3.48249191 103.658915,3.48249191 L100.83161,3.48249191 L100.83161,16.1128673 L103.658915,16.1128673 Z M95,1 L104.279756,1 C111.790854,1 114,2.24158224 114,5.87620329 L113.996648,13.7205011 C113.996648,17.353777 111.787501,18.5960318 104.279756,18.5960318 L100.83161,18.5960318 L100.83161,33 L95,33 L95,1 L95,1 Z" id="Fill-5"/>
                <path d="M127.96511,4.86387131 C127.96511,3.56477691 127.344644,2.593268 124.593979,2.593268 C121.839272,2.593268 121.214764,3.56477691 121.214764,4.86387131 L121.214764,8.38436091 C121.214764,9.44936526 121.573166,10.5157755 122.548665,11.395195 L131.872496,19.7331597 C133.201681,20.8909565 134,22.3264277 134,23.809701 L134,29.0911384 C134,32.2418641 130.451016,34 124.591285,34 C118.10974,34 115,32.4710334 115,29.0876235 L115,24.5049415 L120.861752,24.5049415 L120.861752,28.9062565 C120.861752,30.4816193 122.017126,31.406732 124.591285,31.406732 C126.98759,31.406732 128.139595,30.4816193 128.139595,28.9062565 L128.139595,24.2272671 C128.139595,23.0680643 127.699004,22.187239 126.455377,21.0308481 L117.843634,13.2004301 C116.2443,11.7656618 115.358402,10.6542613 115.358402,8.94111566 L115.358402,4.90956457 C115.358402,1.61965017 118.641279,0 124.593979,0 C131.163103,0 133.825515,1.61965017 133.825515,4.67898937 L133.825515,8.94111566 L127.96511,8.94111566 L127.96511,4.86387131" id="Fill-6"/>
                <polyline id="Fill-11" points="153.31024 0.870295082 159.253292 0.870295082 146.245318 42 140.302266 42 153.31024 0.870295082"/>
                <polyline id="Fill-13" points="144.031043 26 136 1 141.935188 1 147 16.7592097 144.031043 26"/>
                <path d="M172.696639,5.36291803 C172.696639,4.09259016 172.064052,3.14036066 169.277798,3.14036066 C166.49018,3.14036066 165.858957,4.09259016 165.858957,5.36291803 L165.858957,8.8117377 C165.858957,9.85554098 166.218584,10.8993443 167.208751,11.76 L176.650485,19.9286557 C178.000961,21.0612787 178.808927,22.468623 178.808927,23.9207213 L178.808927,29.0922295 C178.808927,32.1781967 175.211296,33.9001967 169.277798,33.9001967 C162.709665,33.9001967 159.561056,32.4026557 159.561056,29.0922295 L159.561056,24.6002951 L165.500013,24.6002951 L165.496601,28.9111475 C165.496601,30.4541311 166.667605,31.3602295 169.277798,31.3602295 C171.701695,31.3602295 172.873382,30.4541311 172.873382,28.9111475 L172.873382,24.3283279 C172.873382,23.1936393 172.423678,22.3316066 171.163279,21.1976066 L162.440798,13.5295082 C160.820773,12.1242295 159.92273,11.0349836 159.92273,9.35636066 L159.92273,5.40767213 C159.92273,2.18744262 163.251494,0.599016393 169.277798,0.599016393 C175.931914,0.599016393 178.629455,2.18744262 178.629455,5.18183607 L178.629455,9.35636066 L172.696639,9.35636066 L172.696639,5.36291803" id="Fill-7"/>
                <path d="M184.5,4.249481 C185.012651,4.249481 185.470421,4.21283509 185.470421,3.59301381 C185.470421,3.09260764 185.022006,2.99972922 184.602904,2.99972922 L183.779045,2.99972922 L183.779045,4.249481 L184.5,4.249481 Z M183.779045,6.51836808 L183.174715,6.51836808 L183.174715,2.48036826 L184.693959,2.48036826 C185.635068,2.48036826 186.100321,2.83292716 186.100321,3.62839606 C186.100321,4.35057316 185.65253,4.66648614 185.066287,4.74104161 L186.200107,6.51836808 L185.52655,6.51836808 L184.473182,4.76884195 L183.779045,4.76884195 L183.779045,6.51836808 Z M184.51185,7.41745645 C186.074751,7.41745645 187.304615,6.17718206 187.304615,4.48957487 C187.304615,2.83292716 186.074751,1.58254355 184.51185,1.58254355 C182.92712,1.58254355 181.695385,2.83292716 181.695385,4.48957487 C181.695385,6.17718206 182.92712,7.41745645 184.51185,7.41745645 Z M181,4.48957487 C181,2.48036826 182.609052,1 184.51185,1 C186.393443,1 188,2.48036826 188,4.48957487 C188,6.51836808 186.393443,8 184.51185,8 C182.609052,8 181,6.51836808 181,4.48957487 L181,4.48957487 Z" id="Fill-15"/>
            </g>
            <path d="M209.353,27.46 C209.327666,26.6746627 209.277,25.9843363 209.201,25.389 C209.125,24.7936637 208.992001,24.2870021 208.802,23.869 C208.611999,23.4509979 208.346002,23.1343344 208.004,22.919 C207.661998,22.7036656 207.225003,22.596 206.693,22.596 C206.160997,22.596 205.724002,22.7163321 205.382,22.957 C205.039998,23.1976679 204.767668,23.5143314 204.565,23.907 C204.362332,24.2996686 204.216667,24.7366643 204.128,25.218 C204.039333,25.6993357 203.995,26.1806643 203.995,26.662 L203.995,27.46 L209.353,27.46 Z M203.995,30.576 L203.995,32.21 C203.995,32.818003 204.039333,33.4069971 204.128,33.977 C204.216667,34.5470029 204.362332,35.0536645 204.565,35.497 C204.767668,35.9403356 205.033665,36.2949987 205.363,36.561 C205.692335,36.8270013 206.097664,36.96 206.579,36.96 C207.465671,36.96 208.111665,36.6433365 208.517,36.01 C208.922335,35.3766635 209.200999,34.4140065 209.353,33.122 L214.065,33.122 C213.963666,35.5033452 213.330339,37.3146605 212.165,38.556 C210.999661,39.7973395 209.163012,40.418 206.655,40.418 C204.75499,40.418 203.273005,40.1013365 202.209,39.468 C201.144995,38.8346635 200.359669,37.9986719 199.853,36.96 C199.346331,35.9213281 199.036001,34.7560065 198.922,33.464 C198.807999,32.1719935 198.751,30.8800065 198.751,29.588 C198.751,28.2199932 198.845999,26.902673 199.036,25.636 C199.226001,24.369327 199.605997,23.2420049 200.176,22.254 C200.746003,21.2659951 201.562995,20.4806696 202.627,19.898 C203.691005,19.3153304 205.109658,19.024 206.883,19.024 C208.403008,19.024 209.650662,19.2709975 210.626,19.765 C211.601338,20.2590025 212.367664,20.9556622 212.925,21.855 C213.482336,22.7543378 213.862332,23.8436603 214.065,25.123 C214.267668,26.4023397 214.369,27.8273255 214.369,29.398 L214.369,30.576 L203.995,30.576 Z M217.587,40 L232.749,40 L232.749,35.516 L223.059,35.516 L223.059,12.868 L217.587,12.868 L217.587,40 Z M245.201,27.46 C245.175667,26.6746627 245.125,25.9843363 245.049,25.389 C244.973,24.7936637 244.840001,24.2870021 244.65,23.869 C244.459999,23.4509979 244.194002,23.1343344 243.852,22.919 C243.509998,22.7036656 243.073003,22.596 242.541,22.596 C242.008997,22.596 241.572002,22.7163321 241.23,22.957 C240.887998,23.1976679 240.615668,23.5143314 240.413,23.907 C240.210332,24.2996686 240.064667,24.7366643 239.976,25.218 C239.887333,25.6993357 239.843,26.1806643 239.843,26.662 L239.843,27.46 L245.201,27.46 Z M239.843,30.576 L239.843,32.21 C239.843,32.818003 239.887333,33.4069971 239.976,33.977 C240.064667,34.5470029 240.210332,35.0536645 240.413,35.497 C240.615668,35.9403356 240.881665,36.2949987 241.211,36.561 C241.540335,36.8270013 241.945664,36.96 242.427,36.96 C243.313671,36.96 243.959665,36.6433365 244.365,36.01 C244.770335,35.3766635 245.048999,34.4140065 245.201,33.122 L249.913,33.122 C249.811666,35.5033452 249.178339,37.3146605 248.013,38.556 C246.847661,39.7973395 245.011013,40.418 242.503,40.418 C240.60299,40.418 239.121005,40.1013365 238.057,39.468 C236.992995,38.8346635 236.207669,37.9986719 235.701,36.96 C235.194331,35.9213281 234.884001,34.7560065 234.77,33.464 C234.655999,32.1719935 234.599,30.8800065 234.599,29.588 C234.599,28.2199932 234.693999,26.902673 234.884,25.636 C235.074001,24.369327 235.453997,23.2420049 236.024,22.254 C236.594003,21.2659951 237.410995,20.4806696 238.475,19.898 C239.539005,19.3153304 240.957658,19.024 242.731,19.024 C244.251008,19.024 245.498662,19.2709975 246.474,19.765 C247.449338,20.2590025 248.215664,20.9556622 248.773,21.855 C249.330336,22.7543378 249.710332,23.8436603 249.913,25.123 C250.115668,26.4023397 250.217,27.8273255 250.217,29.398 L250.217,30.576 L239.843,30.576 Z M262.821,29.778 C262.466332,30.0566681 262.086335,30.2783325 261.681,30.443 C261.275665,30.6076675 260.908335,30.7279996 260.579,30.804 C259.514995,31.0320011 258.755002,31.4119973 258.299,31.944 C257.842998,32.4760027 257.615,33.1979954 257.615,34.11 C257.615,34.8953373 257.766998,35.5666639 258.071,36.124 C258.375002,36.6813361 258.881663,36.96 259.591,36.96 C259.945668,36.96 260.312998,36.9030006 260.693,36.789 C261.073002,36.6749994 261.421332,36.4913346 261.738,36.238 C262.054668,35.9846654 262.314332,35.6553354 262.517,35.25 C262.719668,34.8446646 262.821,34.3633361 262.821,33.806 L262.821,29.778 Z M253.245,25.826 L253.245,25.332 C253.245,24.1413274 253.434998,23.147004 253.815,22.349 C254.195002,21.550996 254.707997,20.9050025 255.354,20.411 C256.000003,19.9169975 256.759996,19.5623344 257.634,19.347 C258.508004,19.1316656 259.438995,19.024 260.427,19.024 C261.997675,19.024 263.264329,19.1759985 264.227,19.48 C265.189671,19.7840015 265.936997,20.2146639 266.469,20.772 C267.001003,21.3293361 267.361999,21.9943295 267.552,22.767 C267.742001,23.5396705 267.837,24.3819954 267.837,25.294 L267.837,36.048 C267.837,37.0106715 267.881333,37.7579973 267.97,38.29 C268.058667,38.8220027 268.229665,39.391997 268.483,40 L263.467,40 C263.289666,39.670665 263.156667,39.3223352 263.068,38.955 C262.979333,38.5876648 262.897,38.2266684 262.821,37.872 L262.745,37.872 C262.136997,38.9360053 261.434004,39.6263318 260.636,39.943 C259.837996,40.2596683 258.805673,40.418 257.539,40.418 C256.626995,40.418 255.854336,40.2596683 255.221,39.943 C254.587663,39.6263318 254.081002,39.1893361 253.701,38.632 C253.320998,38.0746639 253.042334,37.4476702 252.865,36.751 C252.687666,36.0543299 252.599,35.3640034 252.599,34.68 C252.599,33.7173285 252.700332,32.8876702 252.903,32.191 C253.105668,31.4943299 253.415998,30.8990025 253.834,30.405 C254.252002,29.9109975 254.783997,29.499335 255.43,29.17 C256.076003,28.840665 256.854995,28.5493346 257.767,28.296 L260.731,27.498 C261.516337,27.2953323 262.060998,27.0166684 262.365,26.662 C262.669002,26.3073316 262.821,25.7880034 262.821,25.104 C262.821,24.3186627 262.637335,23.7043356 262.27,23.261 C261.902665,22.8176645 261.275671,22.596 260.389,22.596 C259.578329,22.596 258.970335,22.8366643 258.565,23.318 C258.159665,23.7993357 257.957,24.4453293 257.957,25.256 L257.957,25.826 L253.245,25.826 Z M271.891,19.556 L271.891,40 L277.135,40 L277.135,27.726 C277.135,27.0419966 277.248999,26.465669 277.477,25.997 C277.705001,25.528331 278.008998,25.1483348 278.389,24.857 C278.769002,24.5656652 279.186998,24.3566673 279.643,24.23 C280.099002,24.1033327 280.554998,24.04 281.011,24.04 C281.289668,24.04 281.561999,24.0463333 281.828,24.059 C282.094001,24.0716667 282.366332,24.0906665 282.645,24.116 L282.645,19.1 C282.492999,19.0746665 282.334667,19.0556667 282.17,19.043 C282.005333,19.0303333 281.847001,19.024 281.695,19.024 C280.605661,19.024 279.681004,19.3216637 278.921,19.917 C278.160996,20.5123363 277.515003,21.3039951 276.983,22.292 L276.907,22.292 L276.907,19.556 L271.891,19.556 Z M284.875,19.556 L284.875,40 L290.119,40 L290.119,26.434 C290.119,24.1793221 291.043657,23.052 292.893,23.052 C293.678337,23.052 294.248332,23.2609979 294.603,23.679 C294.957668,24.0970021 295.135,24.8379947 295.135,25.902 L295.135,40 L300.379,40 L300.379,24.838 C300.379,22.7859897 299.929338,21.3040046 299.03,20.392 C298.130662,19.4799954 296.845008,19.024 295.173,19.024 C294.032994,19.024 293.019671,19.258331 292.133,19.727 C291.246329,20.195669 290.524336,20.9366616 289.967,21.95 L289.891,21.95 L289.891,19.556 L284.875,19.556 Z M304.395,12.564 L304.395,17.048 L309.639,17.048 L309.639,12.564 L304.395,12.564 Z M304.395,19.556 L304.395,40 L309.639,40 L309.639,19.556 L304.395,19.556 Z M313.655,19.556 L313.655,40 L318.899,40 L318.899,26.434 C318.899,24.1793221 319.823657,23.052 321.673,23.052 C322.458337,23.052 323.028332,23.2609979 323.383,23.679 C323.737668,24.0970021 323.915,24.8379947 323.915,25.902 L323.915,40 L329.159,40 L329.159,24.838 C329.159,22.7859897 328.709338,21.3040046 327.81,20.392 C326.910662,19.4799954 325.625008,19.024 323.953,19.024 C322.812994,19.024 321.799671,19.258331 320.913,19.727 C320.026329,20.195669 319.304336,20.9366616 318.747,21.95 L318.671,21.95 L318.671,19.556 L313.655,19.556 Z M337.811,30.424 C337.811,31.1333369 337.842666,31.8046635 337.906,32.438 C337.969334,33.0713365 338.095999,33.6349975 338.286,34.129 C338.476001,34.6230025 338.741998,35.0156652 339.084,35.307 C339.426002,35.5983348 339.875664,35.744 340.433,35.744 C340.990336,35.744 341.452665,35.5983348 341.82,35.307 C342.187335,35.0156652 342.478666,34.6166692 342.694,34.11 C342.909334,33.6033308 343.061333,32.9890036 343.15,32.267 C343.238667,31.5449964 343.283,30.7533376 343.283,29.892 C343.283,27.4093209 343.086669,25.6486719 342.694,24.61 C342.301331,23.5713281 341.585672,23.052 340.547,23.052 C339.96433,23.052 339.495668,23.1786654 339.141,23.432 C338.786332,23.6853346 338.507668,24.0969971 338.305,24.667 C338.102332,25.2370028 337.969334,25.9969953 337.906,26.947 C337.842666,27.8970048 337.811,29.0559932 337.811,30.424 Z M348.299,19.556 L348.299,38.974 C348.299,41.6086798 347.646673,43.5846601 346.342,44.902 C345.037327,46.2193399 342.852349,46.878 339.787,46.878 C337.557656,46.878 335.841339,46.4030048 334.638,45.453 C333.434661,44.5029952 332.833,43.1540087 332.833,41.406 L337.849,41.406 C337.849,42.06467 338.114997,42.5839981 338.647,42.964 C338.900335,43.1413342 339.172665,43.2806662 339.464,43.382 C339.755335,43.4833338 340.065665,43.534 340.395,43.534 C341.459005,43.534 342.206331,43.1920034 342.637,42.508 C343.067669,41.8239966 343.283,40.9753384 343.283,39.962 L343.283,37.264 L343.207,37.264 C342.674997,38.0240038 342.022671,38.6319977 341.25,39.088 C340.47733,39.5440023 339.673004,39.772 338.837,39.772 C336.759656,39.772 335.195339,38.9803413 334.144,37.397 C333.092661,35.8136588 332.567,33.1600186 332.567,29.436 C332.567,28.2453274 332.636666,27.0293395 332.776,25.788 C332.915334,24.5466605 333.206665,23.4256717 333.65,22.425 C334.093336,21.4243283 334.739329,20.6073365 335.588,19.974 C336.436671,19.3406635 337.570326,19.024 338.989,19.024 C339.72367,19.024 340.483663,19.2266646 341.269,19.632 C342.054337,20.0373354 342.700331,20.7719947 343.207,21.836 L343.283,21.836 L343.283,19.556 L348.299,19.556 Z" id="eLearning" fill="#10938C"/>
        </g>
    </g>
</svg>